<svg xmlns="http://www.w3.org/2000/svg" viewBox="0 0 1026.96 1026.96"><defs><style>.cls-1{fill:#008440;}.cls-2{fill:#16c64f;}</style></defs><g id="Layer_2" data-name="Layer 2"><g id="Layer_1-2" data-name="Layer 1"><path class="cls-1" d="M520.53,667.73l133.9,115a8.21,8.21,0,0,0,13.33-8.14L625.57,598.42a8.21,8.21,0,0,1,2.28-7.81l120.4-116.26a8.21,8.21,0,0,0-5.7-14.11H287.34a8.21,8.21,0,0,0-5.8,14L397.73,590.44a8.21,8.21,0,0,1,2.11,8L351.4,774.93a8.21,8.21,0,0,0,13,8.59l145.64-116A8.21,8.21,0,0,1,520.53,667.73Z"/><circle class="cls-1" cx="514.81" cy="335.38" r="86.15"/><rect class="cls-2" x="474.35" width="78.26" height="127" rx="6.7"/><rect class="cls-2" x="768.16" y="156.16" width="127" height="78.26" rx="6.7" transform="translate(105.5 645.28) rotate(-45)"/><rect class="cls-1" x="899.96" y="474.35" width="127" height="78.26" rx="6.7"/><rect class="cls-1" x="792.53" y="768.16" width="78.26" height="127" rx="6.7" transform="translate(-344.49 831.66) rotate(-45)"/><rect class="cls-1" x="474.35" y="899.96" width="78.26" height="127" rx="6.7"/><rect class="cls-1" x="131.8" y="792.53" width="127" height="78.26" rx="6.7" transform="translate(-530.88 381.69) rotate(-45)"/><rect class="cls-1" y="474.35" width="127" height="78.26" rx="6.7"/><rect class="cls-2" x="156.16" y="131.79" width="78.26" height="127" rx="6.7" transform="translate(-80.89 195.3) rotate(-45)"/></g></g></svg>